HIERARCHY
ROOT Hips
{
	OFFSET 0.00 0.00 0.00
	CHANNELS 6 Xposition Yposition Zposition Xrotation Yrotation Zrotation
	JOINT Spine
	{
		OFFSET 0.00000 7.53995 0.00000
		CHANNELS 3 Xrotation Yrotation Zrotation
		JOINT Head
		{
			OFFSET 0.00000 15.09381 0.00000
			CHANNELS 3 Xrotation Yrotation Zrotation
			End Site
			{
				OFFSET 0.00000 4.52755 0.00000
			}
		}
		JOINT LeftShoulder
		{
			OFFSET 0.00000 9.73893 0.00000
			CHANNELS 3 Xrotation Yrotation Zrotation
			JOINT LeftArm
			{
				OFFSET 7.08401 0.00000 0.00000
				CHANNELS 3 Xrotation Yrotation Zrotation
				JOINT LeftForeArm
				{
					OFFSET 10.25932 0.00000 0.00000
					CHANNELS 3 Yrotation Zrotation Xrotation
					JOINT LeftHand
					{
						OFFSET 9.89698 0.00000 0.00000
						CHANNELS 3 Xrotation Yrotation Zrotation
						JOINT LeftHandThumb1
						{
							OFFSET 0.00000 0.00000 0.00000
							CHANNELS 3 Xrotation Zrotation Yrotation
							End Site
							{
								OFFSET 0.00000 0.00000 3.93700
							}
						}
						End Site
						{
							OFFSET 3.93700 0.00000 0.00000
						}
					}
				}
			}
		}
		JOINT RightShoulder
		{
			OFFSET 0.00000 9.73893 0.00000
			CHANNELS 3 Xrotation Yrotation Zrotation
			JOINT RightArm
			{
				OFFSET -7.08401 0.00000 0.00000
				CHANNELS 3 Xrotation Yrotation Zrotation
				JOINT RightForeArm
				{
					OFFSET -10.25932 0.00000 0.00000
					CHANNELS 3 Yrotation Zrotation Xrotation
					JOINT RightHand
					{
						OFFSET -9.89698 0.00000 0.00000
						CHANNELS 3 Xrotation Yrotation Zrotation
						JOINT RightHandThumb1
						{
							OFFSET 0.00000 0.00000 0.00000
							CHANNELS 3 Xrotation Zrotation Yrotation
							End Site
							{
								OFFSET 0.00000 0.00000 3.93700
							}
						}
						End Site
						{
							OFFSET -3.93700 0.00000 0.00000
						}
					}
				}
			}
		}
	}
	JOINT LeftUpLeg
	{
		OFFSET 3.34548 0.00000 0.00000
		CHANNELS 3 Xrotation Yrotation Zrotation
		JOINT LeftLeg
		{
			OFFSET 0.00000 -19.11473 0.00000
			CHANNELS 3 Xrotation Yrotation Zrotation
			JOINT LeftFoot
			{
				OFFSET 0.00000 -16.04560 0.00000
				CHANNELS 3 Xrotation Yrotation Zrotation
				JOINT LeftToeBase
				{
					OFFSET 0.00000 -1.43467 5.35428
					CHANNELS 3 Xrotation Yrotation Zrotation
					End Site
					{
						OFFSET 0.00000 0.00000 2.95275
					}
				}
			}
		}
	}
	JOINT RightUpLeg
	{
		OFFSET -3.34548 0.00000 0.00000
		CHANNELS 3 Xrotation Yrotation Zrotation
		JOINT RightLeg
		{
			OFFSET 0.00000 -19.11473 0.00000
			CHANNELS 3 Xrotation Yrotation Zrotation
			JOINT RightFoot
			{
				OFFSET 0.00000 -16.04560 0.00000
				CHANNELS 3 Xrotation Yrotation Zrotation
				JOINT RightToeBase
				{
					OFFSET 0.00000 -1.43467 5.35428
					CHANNELS 3 Xrotation Yrotation Zrotation
					End Site
					{
						OFFSET 0.00000 0.00000 2.95275
					}
				}
			}
		}
	}
}
MOTION
Frames: 18
Frame Time: 0.008333
 -0.2922 36.9049 2.5446 8.5261 -0.1233 -1.7470 -5.1783 6.3994 3.0782 -3.1659 -1.7951 -0.7080 -10.3932 5.6000 15.5506 -12.5050 15.4446 -25.7726 -29.3518 -0.0000 2.1136 -3.1712 8.3090 20.9762 33.1476 -0.0000 26.2537 5.4755 -10.6410 -16.8707 -30.5151 -16.5501 26.2217 19.2486 -0.0000 179.2341 0.1996 6.3070 -1.8159 32.8623 0.0000 -24.3270 -9.1854 6.7085 7.6359 13.5574 -0.0000 0.0000 -17.1588 10.4873 -14.6552 13.6310 0.0000 -0.0000 -13.1890 -9.1738 2.1992 21.2434 0.0000 -0.0000 -17.5526 -12.2836 -1.1256 0.8347 0.0000 0.0000
 -0.3312 36.8794 2.5336 8.3276 -0.1896 -1.6445 -4.8722 6.4196 2.9332 -3.1633 -1.7805 -0.6594 -10.2679 5.5370 15.4296 -12.5135 15.8709 -26.0029 -30.4683 -0.0000 0.6988 -3.5056 8.4593 22.6085 33.1476 -0.0000 26.2537 5.7263 -10.5946 -16.6773 -30.3270 -16.3516 26.6236 19.4051 -0.0000 179.1320 0.2011 6.3535 -1.8169 32.8623 0.0000 -24.3270 -9.3350 6.7360 7.6510 14.3010 -0.0000 -0.0000 -17.4292 10.5068 -14.7398 13.5935 0.0000 0.0000 -13.1615 -8.9254 2.3440 21.3768 0.0000 -0.0000 -17.8938 -12.8273 -1.7516 0.8673 -0.0000 -0.0000
 -0.3701 36.8525 2.5201 8.1579 -0.2413 -1.5297 -4.6020 6.4244 2.7831 -3.1404 -1.7654 -0.6735 -10.1773 5.4992 15.3545 -12.9021 16.4440 -26.2621 -31.5666 -0.0000 -0.5748 -3.5405 8.1808 23.4996 33.1476 -0.0000 26.2537 5.8967 -10.5307 -16.4816 -30.1406 -16.1553 27.0062 19.5602 -0.0000 179.1577 0.2089 6.4717 -1.8529 32.8623 0.0000 -24.3270 -9.5240 6.7108 7.6430 15.0804 -0.0000 -0.0000 -17.7002 10.5960 -14.8157 13.5233 0.0000 -0.0000 -13.1437 -8.6592 2.4692 21.5213 -0.0000 0.0000 -18.2434 -13.3360 -2.5101 0.9661 0.0000 0.0000
 -0.4175 36.8253 2.5070 7.9809 -0.3035 -1.4576 -4.3259 6.4273 2.6696 -3.1117 -1.7159 -0.6727 -10.1297 5.4799 15.2167 -13.2174 16.9150 -26.4162 -32.6527 -0.0000 -1.9540 -3.8047 8.2893 24.7628 33.1476 -0.0000 26.2537 6.0587 -10.4834 -16.2663 -29.9298 -15.8859 27.4275 19.6955 -0.0000 179.1591 0.2065 6.5246 -1.8167 32.8623 0.0000 -24.3270 -9.7358 6.7203 7.7032 15.8931 -0.0000 0.0000 -17.9664 10.6163 -14.8921 13.4439 -0.0000 -0.0000 -13.0569 -8.3156 2.6463 21.6207 -0.0000 0.0000 -18.5182 -13.7650 -3.3685 0.9094 0.0000 0.0000
 -0.4607 36.7975 2.4945 7.7992 -0.3584 -1.3552 -4.0625 6.4263 2.5392 -3.0272 -1.6961 -0.7169 -10.1071 5.4118 14.9751 -13.3148 17.4169 -26.4145 -33.9300 -0.0000 -3.7419 -3.8317 8.1225 25.3622 33.1476 -0.0000 26.2537 6.3515 -10.4623 -16.0042 -29.7993 -15.5599 27.8246 19.7810 -0.0000 178.9695 0.2053 6.3927 -1.8431 32.8623 0.0000 -24.3270 -9.9328 6.6791 7.7182 16.7122 0.0000 -0.0000 -18.2105 10.6907 -14.9452 13.3040 -0.0000 -0.0000 -12.9512 -7.9502 2.7485 21.7365 0.0000 -0.0000 -18.8463 -14.1414 -3.9436 1.1007 0.0000 0.0000
 -0.5162 36.7694 2.4801 7.6396 -0.4111 -1.3137 -3.8429 6.4127 2.4631 -2.9165 -1.6543 -0.7592 -10.0305 5.3877 14.8142 -13.7035 17.9895 -26.5051 -35.1517 -0.0000 -5.3862 -3.7849 7.9375 25.5971 33.1476 -0.0000 26.2537 6.5999 -10.4314 -15.7832 -29.5594 -15.2367 28.3190 19.9240 -0.0000 178.8634 0.1920 6.3306 -1.7406 32.8623 0.0000 -24.3270 -10.2313 6.6841 7.8261 17.6506 0.0000 -0.0000 -18.4741 10.7117 -14.9963 13.1534 -0.0000 0.0000 -12.8142 -7.6069 2.9013 21.7787 0.0000 0.0000 -19.1233 -14.4261 -4.4570 1.3063 -0.0000 0.0000
 -0.5668 36.7422 2.4676 7.4728 -0.4854 -1.2566 -3.6209 6.4285 2.3897 -2.7962 -1.6436 -0.7864 -10.0691 5.3604 14.6288 -14.0986 18.5907 -26.5584 -36.3681 -0.0000 -6.8201 -3.5312 7.5517 25.1529 33.1476 -0.0000 26.2537 6.8044 -10.3512 -15.5631 -29.2552 -14.9352 28.7711 20.0720 -0.0000 178.8449 0.1899 6.2042 -1.7562 32.8623 0.0000 -24.3270 -10.4814 6.6493 7.9102 18.5338 -0.0000 0.0000 -18.6895 10.7789 -15.1250 13.0356 0.0000 -0.0000 -12.6605 -7.2742 2.9939 21.7857 0.0000 -0.0000 -19.3618 -14.5744 -4.7864 1.4741 -0.0000 -0.0000
 -0.6183 36.7141 2.4538 7.3310 -0.5394 -1.2228 -3.4425 6.4151 2.3577 -2.6912 -1.6403 -0.8629 -10.0339 5.3621 14.4037 -14.4748 19.1490 -26.5894 -37.6813 -0.0000 -8.3654 -3.3103 7.1914 24.7988 33.1476 -0.0000 26.2537 7.1018 -10.3047 -15.3325 -28.9729 -14.5617 29.2329 20.2413 -0.0000 178.7973 0.1909 6.0881 -1.7995 32.8623 0.0000 -24.3270 -10.7912 6.6003 8.0197 19.4762 0.0000 0.0000 -18.9079 10.8285 -15.2703 12.8543 0.0000 -0.0000 -12.5360 -7.0379 3.0735 21.8174 0.0000 -0.0000 -19.5802 -14.6230 -4.9835 1.6498 -0.0000 -0.0000
 -0.6818 36.6867 2.4380 7.1892 -0.5915 -1.2465 -3.2640 6.4163 2.3634 -2.5455 -1.6244 -0.9419 -9.9997 5.4044 14.2234 -14.9335 19.6566 -26.6790 -39.0010 -0.0000 -9.6941 -3.0891 6.8025 24.4952 33.1476 -0.0000 26.2537 7.3618 -10.1940 -15.0617 -28.6098 -14.2565 29.6491 20.4954 -0.0000 178.7774 0.1986 6.1121 -1.8646 32.8623 0.0000 -24.3270 -11.1556 6.5734 8.2225 20.4910 -0.0000 0.0000 -19.1075 10.8107 -15.4302 12.6614 -0.0000 -0.0000 -12.3528 -6.8714 3.1993 21.7618 0.0000 -0.0000 -19.7467 -14.5618 -4.9302 1.8997 -0.0000 0.0000
 -0.7419 36.6610 2.4207 7.0585 -0.6251 -1.3161 -3.1099 6.3842 2.4636 -2.4108 -1.6124 -1.0465 -9.9387 5.4985 13.9747 -15.4570 20.2107 -26.7651 -40.4756 -0.0000 -10.5072 -2.8637 6.3866 24.2132 33.1476 -0.0000 26.2537 7.6845 -10.0993 -14.7871 -28.3629 -13.9014 30.0331 20.7127 -0.0000 178.7924 0.2075 6.0924 -1.9541 32.8623 0.0000 -24.3270 -11.5619 6.4749 8.4588 21.5667 -0.0000 -0.0000 -19.2635 10.8400 -15.6415 12.3709 -0.0000 -0.0000 -12.1931 -6.9250 3.3214 21.7338 0.0000 -0.0000 -19.8249 -14.3906 -4.8623 1.9840 -0.0000 -0.0000
 -0.8135 36.6362 2.4009 6.9071 -0.6587 -1.4432 -2.9243 6.3750 2.6126 -2.2938 -1.6406 -1.2090 -9.9313 5.5562 13.7609 -15.9237 20.7409 -26.8934 -41.9328 -0.0000 -10.9011 -2.6622 5.9791 24.0551 33.1476 -0.0000 26.2537 8.0236 -10.0518 -14.5075 -28.2182 -13.5504 30.4506 20.9061 -0.0000 178.8299 0.2271 6.0341 -2.1590 32.8623 0.0000 -24.3270 -12.0162 6.3974 8.7950 22.7465 -0.0000 0.0000 -19.3914 10.7664 -15.8890 12.0755 -0.0000 -0.0000 -11.9644 -7.0595 3.4884 21.6225 -0.0000 -0.0000 -19.8791 -14.1435 -4.4636 2.0779 -0.0000 0.0000
 -0.8828 36.6121 2.3804 6.7882 -0.6940 -1.6217 -2.7945 6.3754 2.8640 -2.1439 -1.6360 -1.4305 -9.9034 5.6293 13.5142 -16.3852 21.2766 -27.0545 -43.4470 -0.0000 -10.9548 -2.5255 5.6830 24.0086 33.1476 -0.0000 26.2537 8.3159 -9.9983 -14.2413 -27.9417 -13.1382 30.8479 21.1133 -0.0000 178.8316 0.2325 5.9512 -2.2412 32.8623 0.0000 -24.3270 -12.6043 6.2984 9.1859 24.1242 0.0000 0.0000 -19.4922 10.7098 -16.2195 11.6478 0.0000 -0.0000 -11.8357 -7.3217 3.6967 21.6522 0.0000 -0.0000 -19.8548 -13.8643 -4.1354 1.9866 0.0000 -0.0000
 -0.9521 36.5901 2.3551 6.6858 -0.7362 -1.7804 -2.6866 6.3911 3.0871 -1.9958 -1.7006 -1.6268 -9.8864 5.7214 13.3040 -16.7632 21.7083 -27.2725 -44.9263 -0.0000 -10.9511 -2.5058 5.6069 24.1282 33.1476 -0.0000 26.2537 8.7248 -10.0129 -13.9384 -27.8490 -12.6619 31.2735 21.2453 -0.0000 179.0143 0.2378 5.7312 -2.3800 32.8623 0.0000 -24.3270 -13.2009 6.1727 9.5578 25.4753 -0.0000 -0.0000 -19.4741 10.6663 -16.6067 11.1201 0.0000 0.0000 -11.7359 -7.6256 3.8823 21.6868 0.0000 0.0000 -19.8197 -13.5421 -3.7721 1.9061 -0.0000 0.0000
 -1.0235 36.5694 2.3280 6.5848 -0.7640 -1.9611 -2.5779 6.3847 3.3274 -1.8793 -1.7526 -1.7995 -9.9101 5.7685 13.0653 -17.0172 22.1544 -27.4249 -46.4392 -0.0000 -11.0127 -2.5085 5.5831 24.2425 33.1476 -0.0000 26.2537 9.0384 -9.9889 -13.6544 -27.5755 -12.1379 31.7543 21.3824 -0.0000 179.0377 0.2191 5.5523 -2.2638 32.8623 0.0000 -24.3270 -13.8808 6.0714 9.9605 26.9494 -0.0000 -0.0000 -19.3752 10.5864 -16.9490 10.4986 -0.0000 0.0000 -11.6089 -7.9954 4.0906 21.6727 0.0000 0.0000 -19.8492 -13.1906 -3.6733 2.0936 0.0000 0.0000
 -1.0977 36.5496 2.3011 6.4833 -0.7823 -2.1439 -2.4807 6.3728 3.5810 -1.7125 -1.7558 -2.0485 -9.8466 5.8700 12.8418 -17.4125 22.5630 -27.6499 -47.8696 -0.0000 -10.9678 -2.4468 5.4741 24.1292 33.1476 -0.0000 26.2537 9.2865 -9.9478 -13.4430 -27.2659 -11.6922 32.3071 21.5173 -0.0000 178.9038 0.2157 5.2922 -2.3374 32.8623 0.0000 -24.3270 -14.6482 5.9824 10.3946 28.5887 0.0000 -0.0000 -19.1599 10.4181 -17.3787 9.7066 -0.0000 -0.0000 -11.4819 -8.4223 4.3060 21.6865 0.0000 -0.0000 -19.8438 -12.8292 -3.5255 2.1447 -0.0000 0.0000
 -1.1722 36.5319 2.2667 6.4184 -0.7979 -2.3020 -2.3907 6.3844 3.7627 -1.6336 -1.8144 -2.1584 -9.8795 5.9080 12.7125 -17.5177 22.9439 -27.9318 -49.3280 -0.0000 -11.0959 -2.3857 5.3551 24.0561 33.1476 -0.0000 26.2537 9.5772 -9.9339 -13.1383 -27.0157 -11.1850 32.8453 21.6665 -0.0000 179.1660 0.2017 5.1448 -2.2485 32.8623 0.0000 -24.3270 -15.5505 5.9200 10.8188 30.3795 0.0000 0.0000 -18.7771 10.0989 -17.5865 8.5298 0.0000 -0.0000 -11.3990 -8.8108 4.5159 21.6826 0.0000 0.0000 -19.8488 -12.5119 -3.4156 2.1755 -0.0000 0.0000
 -1.2427 36.5163 2.2319 6.3488 -0.8398 -2.4091 -2.3004 6.4602 3.8759 -1.5663 -1.9417 -2.1675 -9.8735 5.9569 12.5543 -17.6546 23.2028 -28.1941 -50.7731 -0.0000 -10.9809 -2.4398 5.4244 24.2627 33.1476 -0.0000 26.2537 9.7965 -9.8621 -12.8375 -26.5138 -10.6715 33.3998 21.8615 -0.0000 179.1030 0.1840 5.1304 -2.0563 32.8623 0.0000 -24.3270 -16.5008 5.9313 11.2208 32.2442 -0.0000 0.0000 -18.2717 9.8730 -18.1246 7.6405 0.0000 -0.0000 -11.3357 -9.1483 4.6823 21.6980 0.0000 -0.0000 -19.8428 -12.2108 -3.3779 2.1564 -0.0000 0.0000
 -1.3142 36.4980 2.2006 6.2284 -0.8627 -2.4859 -2.1395 6.5147 3.9231 -1.4984 -1.9831 -2.2585 -9.9172 5.9352 12.5354 -17.7241 23.5899 -28.5523 -52.1607 -0.0000 -10.6995 -2.4053 5.3545 24.2343 33.1476 -0.0000 26.2537 10.0516 -9.7925 -12.4913 -26.1150 -10.1482 33.9543 22.0266 -0.0000 179.0762 0.1743 5.0322 -1.9867 32.8623 0.0000 -24.3270 -17.4945 6.0461 11.6281 34.2267 -0.0000 -0.0000 -17.5942 9.4883 -18.5927 6.4591 0.0000 -0.0000 -11.2468 -9.5027 4.8196 21.7815 0.0000 0.0000 -19.9073 -11.9046 -3.4065 2.2146 -0.0000 0.0000
